<?xml version="1.0" encoding="UTF-8" standalone="no"?><!DOCTYPE svg PUBLIC "-//W3C//DTD SVG 1.1//EN" "http://www.w3.org/Graphics/SVG/1.1/DTD/svg11.dtd"><svg width="100%" height="100%" viewBox="0 0 265 265" version="1.1" xmlns="http://www.w3.org/2000/svg" xmlns:xlink="http://www.w3.org/1999/xlink" xml:space="preserve" xmlns:serif="http://www.serif.com/" style="fill-rule:evenodd;clip-rule:evenodd;stroke-linecap:round;stroke-linejoin:round;stroke-miterlimit:1.5;"><path d="M178.692,28.244l-13.9,78.55l46.138,-36.561l-33.128,47.796l80.044,-21.429l-73.262,36.809l59.729,12.522l-60.517,3.955l69.251,46.962l-77.455,-32.65l28.342,52.176l-42.336,-42.865l6.312,79.99l-23.324,-77.523l-24.386,52.54l7.725,-57.406l-61.381,52.783l48.371,-64.018l-58.752,13.34l51.969,-28.72l-82.852,-14.169l83.641,-2.308l-48.876,-35.905l57.08,21.593l-41.935,-70.453l55.928,61.142l-2.195,-58.113l19.208,55.646l30.561,-73.684Z" style="fill:none;stroke-width:3px;"/></svg>