<?xml version="1.0" encoding="UTF-8" standalone="no"?><!DOCTYPE svg PUBLIC "-//W3C//DTD SVG 1.1//EN" "http://www.w3.org/Graphics/SVG/1.1/DTD/svg11.dtd"><svg width="100%" height="100%" viewBox="0 0 265 252" version="1.1" xmlns="http://www.w3.org/2000/svg" xmlns:xlink="http://www.w3.org/1999/xlink" xml:space="preserve" xmlns:serif="http://www.serif.com/" style="fill-rule:evenodd;clip-rule:evenodd;stroke-linejoin:round;stroke-miterlimit:2;"><path d="M94.072,164.514c42.706,30.94 75.439,52.61 124.517,75.32c-58.932,10.665 -125.5,-34.019 -147.899,-87.718c18.121,27.717 33.266,42.068 62.926,60.499c6.43,3.975 12.488,9.162 20.159,11.168c-38.97,-22.538 -57.467,-42.824 -83.144,-77.342c-0.118,-0.014 -0.216,-0.181 0.018,-0.155c7.592,5.79 15.223,12.289 23.423,18.228Zm129.879,-149.328c1.105,5.405 3.813,9.468 6.035,13.983c1.423,2.977 3.173,5.797 4.858,8.53c3.442,5.514 7.868,10.28 11.902,15.355c5.817,7.309 14.419,13.877 22.823,19.058c2.995,1.865 6.198,4.302 10.012,3.798c-6.825,-2.224 -12.13,-7.167 -17.271,-11.508c-10.412,-8.848 -18.977,-18.816 -25.812,-30.231c-3.025,-5.037 -5.671,-10.656 -8.313,-15.649c-0.283,-0.58 -1.064,-1.293 -0.665,-2.032c19.113,7.649 35.046,18.847 47.302,32.833c12.08,13.769 21.791,30.204 27.043,48.984c5.368,19.189 6.875,43.762 0.358,67.034c-5.335,19.064 -14.591,33.733 -25.103,46.068c-1.447,1.711 -3.44,3.402 -4.014,5.723c2.325,-0.166 3.791,-2.385 5.205,-3.826c10.917,-11.042 19.463,-25.007 25.534,-41.953c10.879,13.358 22.081,26.989 28.648,44.2c2.161,5.76 4.273,12.297 3.989,19.264c-0.904,21.72 -22.873,24.383 -41.767,23.058c-17.302,-1.225 -35.002,-6.207 -49.071,-11.094c-67.173,-23.163 -230.992,-142.175 -228.639,-207.257c3.436,-17.831 11.85,-21.332 32.815,-18.949c20.58,2.34 37.008,9.525 53.989,14.621c0.259,0.813 -1.873,2.017 -2.639,2.909c-1.113,-1.575 -3.096,-2.347 -4.78,-3.047c-5.87,-2.347 -12.233,-4.167 -19.042,-5.528c-22.603,-5.502 -34.417,0.388 -39.217,11.302c-3.466,7.781 -1.15,19.423 4.808,31.677c10.328,21.274 38.452,51.494 67.576,75.689c33.445,27.776 68.858,48.928 91.021,61.735c36.478,21.08 72.892,33.746 99.656,28.458c11.802,-2.334 24.04,-8.49 24.642,-23.752c0.395,-9.341 -3.502,-17.018 -7.437,-23.371c-3.073,-4.963 -6.79,-9.413 -10.709,-13.458c-1.257,-1.315 -2.794,-2.938 -4.742,-3.355c0.675,2.306 2.625,3.742 3.999,5.422c1.406,1.726 2.725,3.556 3.998,5.42c4.908,7.052 8.801,14.101 9.436,24.343c0.398,6.107 -1.643,10.999 -5.034,14.678c-45.055,48.885 -245.824,-97.713 -269.399,-158.663c-9.096,-23.523 0.361,-35.509 25.214,-33.27c9.639,0.862 18.681,3.885 28.848,6.643c-5.863,6.179 -12.286,14.168 -17.707,23.329c-2.419,4.067 -5.105,8.766 -7.249,13.881c-1.061,2.461 -1.683,4.813 -2.846,7.848c-0.728,1.913 -3.268,6.355 0.284,6.759c2.356,0.268 2.859,-2.765 3.398,-4.775c0.691,-2.62 1.618,-4.588 2.319,-6.267c1.737,-4.299 3.201,-8.24 5.369,-11.474c4.872,17.682 14.133,32.893 23.712,47.005c4.789,7.075 10.503,13.552 16.135,20.098c5.667,6.55 12.275,12.422 19.662,17.29c-2.663,-3.432 -6.453,-5.504 -9.477,-8.507c-2.987,-2.961 -5.656,-6.315 -8.289,-9.625c-10.54,-13.242 -20.311,-27.062 -28.559,-41.885c-2.179,-3.884 -4.096,-7.661 -5.584,-11.779c-1.903,-5.262 -3.617,-11.519 -5.542,-16.586c9.491,-15.384 21.961,-28.398 36.16,-37.734c0.93,-0.598 2.133,-1.556 2.806,-1.285c0.163,3.381 1.86,6 3.12,8.686c2.292,4.952 5.283,9.945 8.293,14.082c8.358,11.43 16.502,23.386 27.041,33.54c2.359,2.3 4.699,5.109 7.837,7.461c4.177,3.132 14.916,7.404 16.449,0.109c0.92,-4.316 -2.786,-8.176 -4.597,-10.807c-2.386,-3.439 -5.485,-5.435 -6.169,-9.736c3.079,-0.59 5.407,1.983 7.733,3.539c4.699,3.035 9.213,6.677 14.397,9.223c2.553,1.306 6.127,2.885 9.588,2.695c2.951,-0.136 7.093,-2.518 8.553,-5.051c1.31,-2.237 0.843,-4.989 -0.072,-6.932c-2.309,-4.798 -8.655,-8.14 -13.328,-12.112c-4.563,-3.882 -8.843,-8.553 -12.548,-12.767c-4.224,-4.822 -7.928,-9.388 -10.822,-14.176c-2.434,-4.071 -4.373,-8.005 -6.411,-12.07c-0.602,-1.24 -1.141,-2.71 -2.249,-3.619c6.358,18.713 16.881,33.48 31.095,46.045c2.094,1.881 5.09,3.394 7.685,5.682c2.098,1.846 5.544,4.895 4.916,7.991c-0.48,2.527 -4.392,4.586 -6.905,4.691c-3.62,0.174 -7.144,-1.828 -9.897,-3.433c-6.277,-3.608 -8.96,-6.495 -15.455,-10.242c-3.085,-1.76 -7.951,-2.98 -8.769,0.41c-0.401,1.83 1.141,4.079 2.222,5.569c2.545,3.418 4.325,5.655 6.728,9.291c1.004,1.482 2.629,3.701 2.008,5.704c-1.308,4.309 -9.62,0.003 -11.351,-1.29c-3.21,-2.358 -5.876,-5.399 -8.333,-7.871c-5.615,-5.643 -10.184,-11.56 -15.064,-17.119c-2.454,-2.822 -4.47,-6.101 -6.749,-9.098c-7.013,-9.165 -13.194,-18.433 -17.165,-29.952c18.512,-10.449 42.441,-17.622 70.242,-14.501c5.543,18.307 16.635,32.904 28.819,45.787c4.118,4.378 8.675,8.65 13.881,12.058c-1.636,-2.453 -3.891,-4.314 -5.85,-6.336c-14.2,-14.754 -26.57,-30.825 -33.53,-51.132c0.157,0.018 0.211,-0.132 0.372,-0.152c8.609,1.331 16.447,3.238 23.636,5.698Zm-119.044,19.629c-0.235,-1.709 -1.189,-1.935 -2.191,-2.401c-15.031,-7.105 -32.052,-12.873 -52.048,-16.202c-19.233,-3.164 -38.697,0.177 -46.009,13.581c-16.658,30.603 39.233,94.523 60.288,111.932c-0.442,0.773 -1.093,1.364 -1.011,2.702c0.138,2.909 3.201,8.304 4.405,11.139c9.541,57.085 89.241,103.885 150.822,87.149c1.045,-0.274 1.576,-0.8 2.323,-1.848c15.805,6.803 33.753,14.044 52.737,18.041c20.662,4.344 42.451,5.647 55.336,-3.798c7.25,-5.277 10.958,-13.145 10.293,-23.468c-0.578,-9.335 -4.046,-17.002 -7.544,-24.087c-5.366,-10.934 -12.128,-20.268 -19.676,-29.535c-2.437,-3.015 -4.834,-6.335 -8.239,-8.366c13.994,-42.249 2.303,-81.825 -14.995,-108.193c-9.166,-13.988 -20.991,-25.578 -35.185,-35.208c-14.633,-9.915 -31.419,-17.065 -53.305,-20.609c-19.552,-3.123 -40.346,0.223 -55.156,5.267c-16.227,5.507 -29.444,13.741 -40.845,23.904Z"/></svg>