<svg xmlns="http://www.w3.org/2000/svg" width="293.917" height="53.88"><path fill="none" d="M0 0h293.917v53.879H0z" data-name="Rectangle 1100"/><path fill="#040504" d="M57.365 6.706h4.055v24.685h-4.055z" data-name="Rectangle 1101"/><path fill="#040504" d="M82.932 6.707h4.055v24.685h-3.174l-11.637-16.75v16.75h-4.055V6.707h3.094l11.717 16.864Z" data-name="Path 579"/><path fill="#040504" d="M109.733 6.707v3.879h-6.948v20.806H98.73V10.586h-6.982V6.707Z" data-name="Path 580"/><path fill="#040504" d="M166.19 31.85a10.827 10.827 0 0 1-6.048-1.622 8.522 8.522 0 0 1-3.473-4.444l3.491-2.045q1.481 4.161 6.136 4.161a5.521 5.521 0 0 0 3.438-.9 2.832 2.832 0 0 0 1.146-2.339 2.568 2.568 0 0 0-1.236-2.3 19.252 19.252 0 0 0-4.378-1.741l-2.833-1.052a10.983 10.983 0 0 1-2.326-1.24 5.253 5.253 0 0 1-1.816-2.064 6.541 6.541 0 0 1-.6-2.891 6.394 6.394 0 0 1 2.327-5.2 8.524 8.524 0 0 1 5.608-1.922 9.293 9.293 0 0 1 5.184 1.446 9.456 9.456 0 0 1 3.421 3.985l-3.421 1.975a5.32 5.32 0 0 0-5.184-3.456 4.454 4.454 0 0 0-2.821.829 2.7 2.7 0 0 0-1.058 2.239 2.475 2.475 0 0 0 1.082 2.124 14.563 14.563 0 0 0 3.919 1.641l2.027.764 1.846.7a6.292 6.292 0 0 1 1.8.953 13.5 13.5 0 0 1 1.276 1.251 4.31 4.31 0 0 1 .962 1.713 7.845 7.845 0 0 1 .279 2.179 6.469 6.469 0 0 1-2.415 5.307 9.741 9.741 0 0 1-6.33 1.958" data-name="Path 581"/><path fill="#040504" d="M195.354 6.706v3.879h-6.947v20.806h-4.055V10.585h-6.982V6.706Z" data-name="Path 582"/><path fill="#040504" d="M224.624 27.512h10.05v3.879h-14.105V6.706h4.055Z" data-name="Path 583"/><path fill="#040504" d="M243.49 27.512h10.05v3.879h-14.11V6.706h4.055Z" data-name="Path 584"/><path fill="#040504" d="M62.902 37.507a6.361 6.361 0 0 1 4.822 2.033 7.485 7.485 0 0 1 0 10.017 6.343 6.343 0 0 1-4.822 2.044h-5.537V37.507Zm0 11.879a4.215 4.215 0 0 0 3.252-1.369 5.408 5.408 0 0 0 0-6.936 4.231 4.231 0 0 0-3.252-1.359h-3.221v9.664Z" data-name="Path 585"/><path fill="#040504" d="M72.768 37.507h2.315v14.094h-2.315z" data-name="Rectangle 1102"/><path fill="#040504" d="M92.62 44.312v.966a6.3 6.3 0 0 1-1.913 4.742 6.9 6.9 0 0 1-4.993 1.842 7.317 7.317 0 0 1-5.386-2.114 7.4 7.4 0 0 1 0-10.379 7.15 7.15 0 0 1 5.265-2.124 7.3 7.3 0 0 1 3.6.906 6.613 6.613 0 0 1 2.537 2.436l-1.99 1.151a4.19 4.19 0 0 0-1.671-1.621 5.029 5.029 0 0 0-2.477-.614 4.9 4.9 0 0 0-3.644 1.45 4.953 4.953 0 0 0-1.429 3.624 4.868 4.868 0 0 0 1.44 3.6 5.123 5.123 0 0 0 3.775 1.429 4.98 4.98 0 0 0 3.05-.876 3.857 3.857 0 0 0 1.5-2.346h-4.712V44.31Z" data-name="Path 586"/><path fill="#040504" d="M95.74 37.507h2.315v14.094H95.74z" data-name="Rectangle 1103"/><path fill="#040504" d="M111.042 37.506v2.215h-3.967V51.6h-2.315V39.721h-3.986v-2.215Z" data-name="Path 587"/><path fill="#040504" d="M129.263 49.385h5.738V51.6h-8.053V37.506h2.315Z" data-name="Path 588"/><path fill="#040504" d="M119.337 37.506h-2.782L111.441 51.6h2.517l3.99-11.375 3.983 11.375h2.5Z" data-name="Path 589"/><path fill="#040504" d="M270.536 6.706h-4.866l-8.957 24.685h4.408l6.988-19.924 7.682 19.924h4.373Z" data-name="Path 590"/><path fill="#040504" d="M278.072 10.515h7.911a3.638 3.638 0 0 1 2.751 1.2 4.36 4.36 0 0 1 0 5.854 3.635 3.635 0 0 1-2.751 1.2h-3.125l6.616 12.624h4.443l-4.9-9.592a7.77 7.77 0 0 0 3.545-2.839 7.419 7.419 0 0 0 1.357-4.32 7.887 7.887 0 0 0-7.935-7.935h-10.12Z" data-name="Path 591"/><path fill="#040504" d="M136.22 10.515h7.911a3.637 3.637 0 0 1 2.751 1.2 4.36 4.36 0 0 1 0 5.854 3.635 3.635 0 0 1-2.751 1.2h-3.125l6.616 12.624h4.443l-4.9-9.592a7.77 7.77 0 0 0 3.545-2.839 7.42 7.42 0 0 0 1.357-4.32 7.888 7.888 0 0 0-7.935-7.935h-10.12Z" data-name="Path 592"/><path fill="#040504" d="M114.566 17.004h14.841v3.843h-14.841z" data-name="Rectangle 1104"/><path fill="#040504" d="M114.567 6.706h3.843v23.51h-3.843z" data-name="Rectangle 1105"/><path fill="#040504" d="M114.566 27.512h14.841v3.879h-14.841z" data-name="Rectangle 1106"/><path fill="#040504" d="M114.566 6.706h14.841v3.879h-14.841z" data-name="Rectangle 1107"/><path fill="#040504" d="M200.556 17.004h14.841v3.843h-14.841z" data-name="Rectangle 1108"/><path fill="#040504" d="M200.556 6.706h3.843v23.51h-3.843z" data-name="Rectangle 1109"/><path fill="#040504" d="M200.556 27.512h14.841v3.879h-14.841z" data-name="Rectangle 1110"/><path fill="#040504" d="M200.556 6.706h14.841v3.879h-14.841z" data-name="Rectangle 1111"/><path fill="#0827f5" d="M50.249 26.94a26.689 26.689 0 0 1-7.427 19.165 24.559 24.559 0 0 1-18.514 7.775h-6.714V43.72h6.714a14.935 14.935 0 0 0 11.391-4.659q4.389-4.661 4.387-12.121t-4.387-12.122a14.935 14.935 0 0 0-11.391-4.659H21.82a8.67 8.67 0 0 1-8.67-8.67V0h11.158a24.559 24.559 0 0 1 18.514 7.774 26.7 26.7 0 0 1 7.427 19.166" data-name="Path 593"/><path fill="#bd21e4" d="M2.913 26.856h10.621v27.022H2.913z" data-name="Rectangle 1112"/><path fill="#bd21e4" d="M8.224 7.016A10.846 10.846 0 0 1 0 15.24a10.846 10.846 0 0 1 8.224 8.224 10.846 10.846 0 0 1 8.224-8.225 10.846 10.846 0 0 1-8.224-8.224" data-name="Path 594"/></svg>