<svg xmlns="http://www.w3.org/2000/svg" xml:space="preserve" style="fill-rule:evenodd;clip-rule:evenodd;stroke-linejoin:round;stroke-miterlimit:2" viewBox="0 0 294 54"><path d="M57.365 6.706h4.055v24.685h-4.055zm25.567.001h4.055v24.685h-3.174l-11.637-16.75v16.75h-4.055V6.707h3.094l11.717 16.864V6.707Zm26.801 0v3.879h-6.948v20.806H98.73V10.586h-6.982V6.707h17.985ZM166.19 31.85a10.83 10.83 0 0 1-6.048-1.622 8.527 8.527 0 0 1-3.473-4.444l3.491-2.045c.987 2.774 3.033 4.161 6.136 4.161a5.519 5.519 0 0 0 3.438-.9 2.834 2.834 0 0 0 1.146-2.339 2.57 2.57 0 0 0-1.236-2.3 19.285 19.285 0 0 0-4.378-1.741l-2.833-1.052a10.985 10.985 0 0 1-2.326-1.24 5.252 5.252 0 0 1-1.816-2.064 6.535 6.535 0 0 1-.6-2.891 6.396 6.396 0 0 1 2.327-5.2 8.524 8.524 0 0 1 5.608-1.922 9.288 9.288 0 0 1 5.184 1.446 9.453 9.453 0 0 1 3.421 3.985l-3.421 1.975a5.331 5.331 0 0 0-5.184-3.456 4.451 4.451 0 0 0-2.821.829 2.7 2.7 0 0 0-1.058 2.239 2.477 2.477 0 0 0 1.082 2.124 14.529 14.529 0 0 0 3.919 1.641l2.027.764 1.846.7c.648.218 1.256.54 1.8.953.452.388.879.806 1.276 1.251a4.32 4.32 0 0 1 .962 1.713c.195.71.289 1.443.279 2.179a6.472 6.472 0 0 1-2.415 5.307 9.744 9.744 0 0 1-6.33 1.958m29.161-25.153v3.879h-6.947v20.806h-4.055V10.585h-6.982V6.706h17.984Zm29.27 20.806h10.05v3.879h-14.105V6.706h4.055v20.806Zm18.866 0h10.05v3.879h-14.11V6.706h4.055l.005 20.806ZM62.902 37.507a6.367 6.367 0 0 1 4.822 2.033c2.551 2.833 2.551 7.184 0 10.017a6.347 6.347 0 0 1-4.822 2.044h-5.537V37.507h5.537Zm0 11.879a4.22 4.22 0 0 0 3.252-1.369 5.425 5.425 0 0 0 0-6.936 4.231 4.231 0 0 0-3.252-1.359h-3.221v9.664h3.221Zm9.866-11.879h2.315v14.094h-2.315zm19.852 6.805v.966a6.303 6.303 0 0 1-1.913 4.742 6.907 6.907 0 0 1-4.993 1.842 7.32 7.32 0 0 1-5.386-2.114c-2.815-2.861-2.815-7.518 0-10.379a7.151 7.151 0 0 1 5.265-2.124 7.305 7.305 0 0 1 3.6.906 6.612 6.612 0 0 1 2.537 2.436l-1.99 1.151a4.196 4.196 0 0 0-1.671-1.621 5.027 5.027 0 0 0-2.477-.614 4.902 4.902 0 0 0-3.644 1.45 4.953 4.953 0 0 0-1.429 3.624 4.872 4.872 0 0 0 1.44 3.6 5.128 5.128 0 0 0 3.775 1.429 4.981 4.981 0 0 0 3.05-.876 3.86 3.86 0 0 0 1.5-2.346h-4.712V44.31l7.048.002Zm3.12-6.805h2.315v14.094H95.74zm15.302-.001v2.215h-3.967V51.6h-2.315V39.721h-3.986v-2.215h10.268Zm18.221 11.879h5.738V51.6h-8.053V37.506h2.315v11.879Zm-9.926-11.879h-2.782L111.441 51.6h2.517l3.99-11.375 3.983 11.375h2.5l-5.094-14.094Zm151.199-30.8h-4.866l-8.957 24.685h4.408l6.988-19.924 7.682 19.924h4.373l-9.628-24.685Zm7.536 3.809h7.911a3.638 3.638 0 0 1 2.751 1.2 4.377 4.377 0 0 1 0 5.854 3.638 3.638 0 0 1-2.751 1.2h-3.125l6.616 12.624h4.443l-4.9-9.592a7.768 7.768 0 0 0 3.545-2.839 7.421 7.421 0 0 0 1.357-4.32v-.048c0-4.327-3.56-7.887-7.887-7.887h-10.168l2.208 3.808Zm-141.852 0h7.911a3.638 3.638 0 0 1 2.751 1.2 4.377 4.377 0 0 1 0 5.854 3.638 3.638 0 0 1-2.751 1.2h-3.125l6.616 12.624h4.443l-4.9-9.592a7.768 7.768 0 0 0 3.545-2.839 7.421 7.421 0 0 0 1.357-4.32v-.047c0-4.327-3.561-7.888-7.888-7.888h-10.167l2.208 3.808Zm-21.654 6.489h14.841v3.843h-14.841z" style="fill:#fff;fill-rule:nonzero"/><path d="M114.567 6.706h3.843v23.51h-3.843z" style="fill:#fff;fill-rule:nonzero"/><path d="M114.566 27.512h14.841v3.879h-14.841zm0-20.806h14.841v3.879h-14.841zm85.99 10.298h14.841v3.843h-14.841z" style="fill:#fff;fill-rule:nonzero"/><path d="M200.556 6.706h3.843v23.51h-3.843z" style="fill:#fff;fill-rule:nonzero"/><path d="M200.556 27.512h14.841v3.879h-14.841zm0-20.806h14.841v3.879h-14.841zM50.249 26.94a26.7 26.7 0 0 1-7.427 19.165 24.57 24.57 0 0 1-18.514 7.775h-6.714V43.72h6.714a14.943 14.943 0 0 0 11.391-4.659c2.926-3.107 4.388-7.148 4.387-12.121-.001-4.973-1.464-9.014-4.387-12.122a14.943 14.943 0 0 0-11.391-4.659H21.82c-4.756 0-8.67-3.914-8.67-8.67V0h11.158a24.568 24.568 0 0 1 18.514 7.774 26.712 26.712 0 0 1 7.427 19.166m-47.336-.084h10.621v27.022H2.913z" style="fill:#fff;fill-rule:nonzero"/><path d="M8.224 7.016A10.86 10.86 0 0 1 0 15.24a10.86 10.86 0 0 1 8.224 8.224 10.862 10.862 0 0 1 8.224-8.225 10.86 10.86 0 0 1-8.224-8.224" style="fill:#fff;fill-rule:nonzero"/></svg>