<?xml version="1.0" encoding="utf-8"?>
<!-- Generator: Adobe Illustrator 28.2.0, SVG Export Plug-In . SVG Version: 6.00 Build 0)  -->
<svg version="1.1" id="Layer_1" xmlns="http://www.w3.org/2000/svg" xmlns:xlink="http://www.w3.org/1999/xlink" x="0px" y="0px"
	 viewBox="0 0 293.9 53.9" style="enable-background:new 0 0 293.9 53.9;" xml:space="preserve">
<style type="text/css">
	.st0{fill:#F0637E;}
	.st1{fill:#4E489D;}
	.st2{fill:#503E90;}
</style>
<g>
	<g>
		<path class="st0" d="M16.4,21.1c-2.6,1.2-4.7,3.3-5.9,5.9c-1.2-2.6-3.3-4.7-5.9-5.9c2.6-1.2,4.8-3.3,6-5.9
			C11.7,17.8,13.8,19.9,16.4,21.1z"/>
		<rect x="4.6" y="32.9" class="st0" width="11.8" height="17.8"/>
	</g>
	<path class="st1" d="M51.9,27c0,2-0.3,4-0.7,5.9c-0.5,2.1-1.4,4.1-2.4,5.9C44.7,45.9,37,50.7,28.2,50.7h-5.9V38.8h5.9
		c4.4,0,8.2-2.4,10.3-5.9c1-1.7,1.6-3.8,1.6-5.9c0-6.5-5.3-11.8-11.8-11.8c-2.2,0-4.2-0.6-5.9-1.6c-2.7-1.6-4.7-4.2-5.6-7.3
		c-0.2-0.9-0.4-1.9-0.4-3h11.8c4.2,0,8.1,1.1,11.5,3C47,10.3,51.9,18.1,51.9,27z"/>
	<g>
		<path class="st0" d="M70.8,32.9c2.4,0,4.5,0.9,6.1,2.6c1.6,1.7,2.4,3.8,2.4,6.3c0,2.5-0.8,4.6-2.4,6.3c-1.6,1.7-3.6,2.6-6.1,2.6
			h-7V32.9H70.8z M70.8,47.9c1.7,0,3-0.6,4.1-1.7c1.1-1.2,1.6-2.6,1.6-4.4c0-1.8-0.5-3.2-1.6-4.4c-1.1-1.1-2.4-1.7-4.1-1.7h-4.1
			v12.2H70.8z"/>
		<path class="st0" d="M85.9,32.9h2.9v17.8h-2.9V32.9z"/>
		<path class="st0" d="M113.6,41.5v1.2c0,2.4-0.8,4.4-2.4,6c-1.6,1.5-3.7,2.3-6.3,2.3c-2.7,0-5-0.9-6.8-2.7s-2.7-4-2.7-6.6
			c0-2.6,0.9-4.8,2.7-6.5c1.8-1.8,4-2.7,6.6-2.7c1.7,0,3.2,0.4,4.5,1.1c1.4,0.8,2.4,1.8,3.2,3.1l-2.5,1.4c-0.5-0.8-1.2-1.5-2.1-2
			c-0.9-0.5-2-0.8-3.1-0.8c-1.9,0-3.4,0.6-4.6,1.8c-1.2,1.2-1.8,2.7-1.8,4.6c0,1.8,0.6,3.3,1.8,4.5c1.2,1.2,2.8,1.8,4.8,1.8
			c1.6,0,2.9-0.4,3.8-1.1c1-0.7,1.6-1.7,1.9-3h-5.9v-2.6H113.6z"/>
		<path class="st0" d="M120.2,32.9h2.9v17.8h-2.9V32.9z"/>
		<path class="st0" d="M142.7,32.9v2.8h-5v15h-2.9v-15h-5v-2.8H142.7z"/>
		<path class="st0" d="M175,47.9h7.2v2.8h-10.2V32.9h2.9V47.9z"/>
		<polygon class="st0" points="159.3,32.9 155.8,32.9 149.3,50.7 152.5,50.7 157.5,36.3 162.5,50.7 165.7,50.7 		"/>
	</g>
	<g>
		<path class="st1" d="M63.8,3.3h3.9V27h-3.9V3.3z"/>
		<path class="st1" d="M87.8,3.3h3.9V27h-3L77.5,10.9V27h-3.9V3.3h3l11.2,16.2V3.3z"/>
		<path class="st1" d="M111.9,3.3V7h-6.7v20h-3.9V7h-6.7V3.3H111.9z"/>
		<path class="st1" d="M165.3,27.4c-2.3,0-4.2-0.5-5.8-1.6c-1.6-1-2.7-2.5-3.3-4.3l3.4-2c0.9,2.7,2.9,4,5.9,4c1.5,0,2.6-0.3,3.3-0.9
			c0.7-0.6,1.1-1.3,1.1-2.2c0-1-0.4-1.7-1.2-2.2c-0.8-0.5-2.2-1.1-4.2-1.7c-1.1-0.4-2-0.7-2.7-1c-0.7-0.3-1.5-0.7-2.2-1.2
			c-0.8-0.5-1.4-1.2-1.7-2c-0.4-0.8-0.6-1.7-0.6-2.8c0-2.1,0.7-3.8,2.2-5c1.5-1.2,3.3-1.8,5.4-1.8c1.9,0,3.6,0.5,5,1.4
			c1.4,0.9,2.5,2.2,3.3,3.8l-3.3,1.9c-1-2.2-2.7-3.3-5-3.3c-1.1,0-2,0.3-2.7,0.8c-0.7,0.5-1,1.2-1,2.1c0,0.9,0.3,1.5,1,2
			c0.7,0.5,1.9,1,3.8,1.6c0.9,0.3,1.5,0.6,1.9,0.7c0.4,0.2,1,0.4,1.8,0.7c0.8,0.3,1.3,0.6,1.7,0.9c0.4,0.3,0.8,0.7,1.2,1.2
			c0.4,0.5,0.7,1,0.9,1.6c0.2,0.6,0.3,1.3,0.3,2.1c0,2.1-0.8,3.8-2.3,5.1C169.9,26.8,167.8,27.4,165.3,27.4z"/>
		<path class="st1" d="M194.2,3.3V7h-6.7v20h-3.9V7h-6.7V3.3H194.2z"/>
		<path class="st1" d="M223.8,23.3h9.6V27h-13.5V3.3h3.9V23.3z"/>
		<path class="st1" d="M242.2,23.3h9.6V27h-13.5V3.3h3.9V23.3z"/>
		<polygon class="st1" points="267.7,3.3 263,3.3 254.4,27 258.7,27 265.4,7.9 272.7,27 276.9,27 		"/>
		<path class="st1" d="M274.2,7h7.6c1,0,1.9,0.4,2.6,1.2c0.7,0.8,1.1,1.7,1.1,2.8c0,1.1-0.4,2-1.1,2.8c-0.7,0.8-1.6,1.2-2.6,1.2h-2
			l4.8,12.1h3.8l-3.6-9.2c1.4-0.6,2.5-1.5,3.4-2.7c0.9-1.3,1.3-2.6,1.3-4.1c0-2.1-0.7-3.9-2.2-5.4c-1.5-1.5-3.3-2.2-5.4-2.2h-9
			L274.2,7z"/>
		<path class="st1" d="M137.5,7h7.6c1,0,1.9,0.4,2.6,1.2c0.7,0.8,1.1,1.7,1.1,2.8c0,1.1-0.4,2-1.1,2.8c-0.7,0.8-1.6,1.2-2.6,1.2h-2
			l4.8,12.1h3.8l-3.6-9.2c1.4-0.6,2.5-1.5,3.4-2.7c0.9-1.3,1.3-2.6,1.3-4.1c0-2.1-0.7-3.9-2.2-5.4c-1.5-1.5-3.3-2.2-5.4-2.2h-9
			L137.5,7z"/>
		<g>
			<polygon class="st2" points="120.4,7 120.4,13.2 130.9,13.2 130.9,16.9 120.4,16.9 120.4,23.3 130.9,23.3 130.9,27 116.7,27 
				116.7,3.3 130.9,3.3 130.9,7 			"/>
		</g>
		<g>
			<polygon class="st2" points="202.7,7 202.7,13.2 213.2,13.2 213.2,16.9 202.7,16.9 202.7,23.3 213.2,23.3 213.2,27 199,27 
				199,3.3 213.2,3.3 213.2,7 			"/>
		</g>
	</g>
</g>
</svg>
