<svg xmlns="http://www.w3.org/2000/svg" width="100" height="66" viewBox="0 0 100 66" fill="none"><g clip-path="url(#clip0_1953_3158)"><path fill-rule="evenodd" clip-rule="evenodd" d="M2.82376 52.6295C3.83268 53.1703 4.84465 53.708 5.88205 54.1844C8.97086 55.5993 12.1471 56.7975 15.3529 57.9149C17.9169 58.8084 20.489 59.6846 23.1354 60.298C27.405 61.2896 31.7306 61.9593 36.0836 62.4428C38.4879 62.7107 40.8994 62.9243 43.3118 63.0849C45.828 63.2525 48.3483 63.368 50.8696 63.4345C54.235 63.5234 57.6035 63.4928 60.97 63.3711C62.2871 63.3231 63.6042 63.2515 64.9203 63.1687L65.8539 63.1033C66.3059 63.1417 66.7559 63.1786 67.2036 63.2141L68.5397 63.3161L69.8605 63.4094C70.0793 63.4242 70.2974 63.4387 70.5147 63.4529L71.8097 63.5334L73.0855 63.6057C73.2965 63.617 73.5065 63.628 73.7157 63.6387L74.9597 63.6987C75.1652 63.708 75.3697 63.717 75.5731 63.7257L76.7818 63.7738L77.9648 63.814L79.1207 63.8467L80.2479 63.8719L81.3447 63.8897C81.5249 63.892 81.7037 63.8941 81.8812 63.8958L82.9295 63.9029C83.1014 63.9034 83.2719 63.9037 83.4409 63.9037L82.3317 64.0714C63.8283 66.7824 26.5975 68.0094 2.82376 52.6295ZM44.011 33.8845L44.0781 34.1718L44.3895 35.6474C44.4416 35.8931 44.4947 36.1384 44.55 36.3831C43.9318 37.8625 43.3426 39.3645 42.7595 40.8726L41.595 43.892C41.01 45.4009 40.416 46.9048 39.7902 48.3873C39.6915 48.8698 39.3691 48.9465 38.9297 48.8974C38.0518 48.89 37.1738 48.8911 36.2958 48.8944L33.662 48.9052C31.9062 48.909 30.1505 48.8974 28.3951 48.8218C28.5242 48.464 28.6574 48.1062 28.7907 47.7494C29.2738 47.7586 29.7569 47.7668 30.24 47.7678L34.024 47.7711L37.8079 47.7698L38.0135 47.766L38.1151 47.7708C38.3274 47.792 38.4788 47.7279 38.5567 47.5404L38.606 47.4016L38.6684 47.2597L40.4669 42.7734C40.7656 42.0251 41.0632 41.2763 41.3585 40.5266C42.1772 38.4462 42.9725 36.3545 43.7831 34.2699L43.8003 34.2201L43.8326 34.1154C43.8623 34.0274 43.9054 33.9414 44.011 33.8845ZM27.5178 41.8058C27.9908 41.8089 28.4627 41.813 28.9366 41.8202L28.9096 42.0424C28.901 42.1118 28.8904 42.177 28.8695 42.2393L28.5833 43.1027C28.4401 43.5342 28.2924 43.964 28.121 44.3842C27.5585 45.7653 26.9524 47.1271 26.3787 48.5031C26.2587 48.7894 26.1021 48.9049 25.7797 48.9039C18.3786 48.8947 10.9794 48.8978 3.58035 48.8937C3.28472 48.8937 2.9893 48.8864 2.69399 48.8765L1.58691 48.8364V48.7597C1.65709 48.6616 1.75168 48.5737 1.79643 48.4653L2.07815 47.7619C2.20529 47.765 2.3314 47.7671 2.45853 47.7671C9.85763 47.7711 17.2577 47.7681 24.6579 47.7773C24.9813 47.7783 25.1379 47.6618 25.2569 47.3755C25.8305 45.9994 26.4367 44.6377 27.0002 43.2576C27.1934 42.7822 27.3561 42.2935 27.5178 41.8058ZM100.463 18.3638V25.4639L100.117 25.4994C100.06 25.5042 100.002 25.5075 99.9444 25.5078C96.82 25.5191 93.6966 25.5222 90.5732 25.4271C89.7962 25.4036 89.0141 25.4639 88.237 25.5303C87.9258 25.5559 87.6105 25.6683 87.3227 25.7982C86.7704 26.0497 86.5741 26.4883 86.7745 27.0679C86.9037 27.4411 87.0847 27.803 87.2963 28.1373C87.8176 28.9587 88.441 29.7009 89.0866 30.4226L89.6436 31.0376L90.0971 31.5233L91.0215 32.478C91.1752 32.6374 91.3279 32.7976 91.4784 32.9596C92.2554 33.7969 93.0315 34.6352 93.782 35.496C94.5774 36.4069 95.1876 37.4272 95.4348 38.6336C95.7094 39.9759 95.5802 41.2691 94.9445 42.4969C94.2031 43.9272 93.1881 45.1141 91.869 46.0383C90.2173 47.1956 88.3815 47.9194 86.4328 48.3784C84.8909 48.7413 83.3267 48.8926 81.7472 48.8947C77.2142 48.9008 72.6821 48.8988 68.1491 48.8937C67.9148 48.8933 67.6805 48.8866 67.4431 48.8773L66.3449 48.8293L66.3918 48.5215C66.4001 48.4724 66.4093 48.4241 66.4201 48.3764L66.5666 47.7354C68.5777 47.7787 70.585 47.7851 72.5919 47.7808L76.6064 47.7654C77.9451 47.7607 79.2847 47.759 80.6264 47.7681C84.1708 47.763 87.7966 46.9604 90.7482 44.9117C93.0559 43.2637 95.0045 40.4594 94.314 37.5069C93.8437 35.6265 92.6246 34.1641 91.2873 32.788L90.8832 32.3774L89.8669 31.3605C89.3969 30.8857 88.9396 30.4073 88.5218 29.911L88.4324 29.8037L88.2235 29.5634L87.5755 28.8389L87.2887 28.5114C87.2404 28.4554 87.192 28.3989 87.1437 28.3418L86.9226 28.076L86.7847 27.9047L86.6497 27.7318L86.5186 27.5578L86.3314 27.2959L86.2144 27.1214C86.1955 27.0924 86.1769 27.0634 86.1586 27.0345L86.053 26.8613C86.0361 26.8325 86.0196 26.8039 86.0035 26.7752L85.9115 26.6045C85.8971 26.5763 85.883 26.5481 85.8694 26.52L85.7933 26.3529C85.3947 25.4142 85.5653 24.6227 87.1152 24.4027C88.9924 24.2786 90.8746 24.3043 92.7572 24.3453L94.6398 24.3864C95.8948 24.4105 97.1493 24.4215 98.4021 24.3794L99.3413 24.3373V18.3648L99.4479 18.3638H100.463ZM68.4922 19.5032C72.5165 21.5781 72.3755 26.0248 68.3152 29.9896L68.0033 30.286C67.0457 31.1723 65.8899 32.0305 64.5389 32.8282C64.4516 32.8798 64.3446 32.9366 64.2212 32.9982L63.9537 33.1275L63.6485 33.2683L61.9696 34.016L61.5643 34.201L61.2477 34.3491L60.8094 34.5611L60.5251 34.7041L60.25 34.8482L59.9863 34.9927L59.7365 35.1374C58.8892 35.6432 58.34 36.1429 58.5453 36.5546C60.145 39.7549 61.839 42.9245 63.4852 46.1094L64.7346 48.552L64.8938 48.8974H56.7229C55.3621 48.8968 54.0004 48.8962 52.6362 48.8952C52.5221 48.8728 52.393 48.8707 52.2585 48.8743L51.9505 48.886C51.607 48.8962 51.2737 48.874 51.0984 48.5926C50.9021 48.3176 50.7099 48.0395 50.5208 47.7584C50.6387 47.7635 50.7557 47.7676 50.8737 47.7676L56.7525 47.7697L63.1313 47.7696L62.9726 47.425L62.9472 47.375C61.8955 45.3998 60.8419 43.4278 59.7953 41.4516C58.9288 39.8159 58.0663 38.1791 57.2171 36.5352C57.036 36.1846 56.9038 35.8042 56.7838 35.427C56.675 35.0835 56.8062 34.7891 57.0859 34.5754C57.2689 34.4364 57.4632 34.3086 57.6666 34.2033L57.9996 34.0394L59.8894 33.173C61.1023 32.6139 62.3085 32.0405 63.474 31.3827C65.6546 30.1508 67.4893 28.5477 68.8431 26.4141C69.3424 25.6269 69.7645 24.8081 69.9689 23.891C70.3483 22.1929 69.8774 20.7647 68.602 19.6003L68.4922 19.5032ZM22.7775 18.382H24.2757L24.2031 18.6667C24.1803 18.7559 24.1567 18.84 24.1251 18.9208L23.3025 21.0619C23.027 21.7751 22.7475 22.4866 22.4561 23.1931C20.4912 27.9571 18.5018 32.711 16.5399 37.4771C16.1046 38.5342 15.7141 39.6097 15.3164 40.6821C14.8302 40.676 14.3431 40.6698 13.8549 40.6576L13.8925 40.5082L13.9586 40.2365C13.9809 40.1508 14.0048 40.0693 14.0349 39.99L14.5758 38.5286C14.8465 37.7982 15.1215 37.0696 15.4181 36.3495C17.382 31.5844 19.3714 26.8295 21.3343 22.0654C21.586 21.4561 21.8286 20.843 22.0674 20.2283L22.7775 18.382ZM53.3963 24.255C54.0838 24.2591 54.7734 24.3265 55.4599 24.393C55.6836 24.4145 55.9084 24.5034 56.1139 24.6026C56.5237 24.7989 56.7526 25.1485 56.7506 25.5492C56.6946 25.536 56.6376 25.5257 56.5807 25.5206C55.8952 25.4531 55.2056 25.3867 54.5171 25.3826C53.8387 25.3785 53.1603 25.3852 52.4819 25.3945L50.4468 25.4225C50.0115 25.4266 49.5772 25.4143 49.1409 25.4143L49.0019 25.4188L48.7026 25.4388C47.9632 27.8086 47.0661 30.1078 46.1304 32.3876L45.2283 32.7935C44.8927 32.9458 44.5774 33.1411 44.2509 33.3159L44.1827 33.2535L44.8496 31.6497C45.8438 29.2412 46.7997 26.8157 47.5828 24.3122L47.881 24.2912C47.9279 24.2885 47.974 24.2867 48.0201 24.2867C48.4554 24.2867 48.8907 24.3 49.326 24.2948C50.6828 24.2826 52.0395 24.2468 53.3963 24.255ZM35.8151 24.2962H36.3999L36.3733 24.4509C36.3658 24.494 36.3582 24.5303 36.346 24.565L36.045 25.4238H35.1103C35.2554 25.1662 35.4095 24.914 35.57 24.6658L35.8151 24.2962ZM97.3688 13.2127C96.3639 12.6698 95.355 12.128 94.3186 11.6546C90.8647 10.0792 87.3101 8.76451 83.7189 7.54998C80.5019 6.46427 77.2585 5.47976 73.9103 4.87761C71.0361 4.36031 68.1579 3.88799 65.2592 3.55062C63.3645 3.33184 61.4666 3.13453 59.5668 2.98629C57.2703 2.80739 54.9697 2.64279 52.6691 2.55998C50.0735 2.46695 47.4729 2.43424 44.8754 2.4465C43.3547 2.45448 41.8343 2.49226 40.3143 2.53734L37.2749 2.63052C36.8304 2.64381 36.386 2.6663 35.9415 2.69391C29.6642 2.27986 23.3666 2.09789 17.0975 1.91591L17.8692 1.8318L19.4222 1.66775L20.9873 1.50981C21.5109 1.45825 22.0365 1.40782 22.5638 1.35862L24.1512 1.21481C25.2129 1.12155 26.2814 1.03364 27.356 0.951932L28.9721 0.834136C51.9279 -0.765676 77.3937 0.629821 97.3688 13.2127Z" fill="#A1A8AF"></path><path fill-rule="evenodd" clip-rule="evenodd" d="M0.692441 51.0928H1.78985L9.54899 51.1214C11.456 51.1275 13.364 51.1286 15.272 51.1378C15.4205 51.1388 15.5893 51.1541 15.7124 51.2257C16.8159 51.8616 17.9957 52.3267 19.1826 52.7684C24.2078 54.6433 29.3074 56.2883 34.4995 57.6306C37.0492 58.29 39.6346 58.8001 42.2342 59.2316C44.1524 59.5485 46.0716 59.8583 47.9958 60.1282C49.5916 60.351 51.1945 60.5258 52.7963 60.6986C54.5131 60.8847 56.232 61.0595 57.9518 61.2088C59.2404 61.3222 60.5301 61.4183 61.8207 61.4715C65.2868 61.6126 68.754 61.7312 72.2211 61.8498L73.5138 61.8869L76.0992 61.9448C76.1734 61.9459 76.2477 61.9551 76.3321 62.0174C76.2456 62.0338 76.1592 62.0542 76.0717 62.0655L73.2518 62.412C72.7817 62.4685 72.3113 62.5235 71.8408 62.5756C70.723 62.6993 69.6002 62.8005 68.4784 62.8966C67.6027 62.9713 66.728 63.0397 65.8523 63.1031L64.9187 63.1686C63.6026 63.2514 62.2855 63.324 60.9684 63.372C57.6019 63.4937 54.2334 63.5233 50.867 63.4344C48.3467 63.3689 45.8254 63.2524 43.3102 63.0847C40.8978 62.9242 38.4863 62.7106 36.082 62.4427C31.729 61.9602 27.4034 61.2895 23.1338 60.2989C20.4874 59.6845 17.9153 58.8093 15.3513 57.9158C12.1455 56.7974 8.96926 55.5992 5.88046 54.1843C5.04972 53.8032 4.23656 53.3828 3.42796 52.9535L2.29126 52.3451C2.02825 52.2053 1.77878 52.0386 1.53254 51.8664L1.04129 51.5211C0.906023 51.4281 0.792112 51.3054 0.668031 51.195L0.692441 51.0928ZM88.8584 17.1385L89.6978 17.1483L90.8177 17.1736L93.6023 17.2584C95.1677 17.3021 96.7039 17.3224 98.1715 17.2378L98.7721 17.2361L99.3391 17.2367V24.3368C97.7744 24.4261 96.2063 24.4166 94.6377 24.3864L92.7552 24.3454C90.8726 24.3044 88.9907 24.2787 87.114 24.4033C85.5163 24.63 85.3841 25.4641 85.8303 26.4407L85.9122 26.6094L86.0046 26.7804L86.1062 26.9531C86.1239 26.982 86.1419 27.011 86.1603 27.04L86.2741 27.2144L86.3947 27.3892L86.5213 27.564L86.7199 27.8249L86.8568 27.9972L87.0662 28.2519L87.218 28.4312L87.5049 28.761L88.2414 29.5851C88.3471 29.7046 88.4415 29.8138 88.5206 29.9106C88.9503 30.4213 89.4219 30.913 89.906 31.4011L90.8657 32.3611L91.2379 32.7385C92.5939 34.129 93.8365 35.6034 94.3118 37.5065C95.0034 40.46 93.0547 43.2633 90.7459 44.9112C87.7955 46.96 84.1686 47.7625 80.6242 47.7676C75.9294 47.737 71.2571 47.8372 66.5654 47.7349C66.1169 47.7247 65.6694 47.7165 65.2218 47.7032C65.6856 45.3335 66.302 43.0148 66.8085 40.6522C70.1058 40.5766 73.4102 40.6471 76.7105 40.6287C76.7636 40.6247 76.8198 40.622 76.8788 40.6204L77.064 40.6186L77.3691 40.6252L78.2949 40.6648L78.6646 40.675L78.9125 40.6766L79.1591 40.6726C80.3448 40.6373 81.4154 40.3562 81.3443 39.1412C81.2212 38.5942 80.9077 38.1574 80.5435 37.7513L80.3199 37.5107L79.935 37.1121C79.7561 36.9249 79.5825 36.7351 79.4291 36.5343C77.6645 34.463 75.9132 32.3795 74.1455 30.3093C72.1483 27.9579 72.7915 24.4254 74.6538 22.2031L74.7669 22.0713C77.8496 18.3385 82.1207 17.3555 86.6331 17.1726L87.1868 17.154C87.2792 17.1516 87.3718 17.1494 87.4644 17.1475L88.0209 17.1395C88.1138 17.1387 88.2068 17.1381 88.2998 17.1378L88.8584 17.1385ZM23.1524 17.2547C23.0965 17.4571 23.065 17.632 23.0019 17.7935L22.7761 18.3824C22.3032 19.6132 21.8364 20.8472 21.3329 22.0658C19.369 26.8299 17.3796 31.5847 15.4167 36.3498C15.1195 37.07 14.8447 37.7986 14.5739 38.5288L14.0325 39.9893C14.0028 40.0691 13.9791 40.1508 13.957 40.2366L13.8911 40.5086C13.8795 40.5567 13.8671 40.6064 13.8535 40.6579C14.3417 40.6692 14.8278 40.6763 15.315 40.6825C19.4931 40.7356 23.6335 40.6262 27.8136 40.6937L27.7869 40.9154C27.7783 40.9848 27.7673 41.05 27.7465 41.1119L27.6303 41.4586L27.5156 41.806C27.3549 42.2937 27.1922 42.7823 26.9979 43.2577C26.4355 44.6379 25.8293 45.9996 25.2547 47.3757C25.1357 47.6619 24.9791 47.7775 24.6567 47.7765C17.2555 47.7683 9.85644 47.7713 2.45633 47.7672L2.26614 47.7658L1.53819 47.7477L0.462891 47.709V47.6323C0.534085 47.5341 0.628671 47.4462 0.673422 47.3389L3.10464 41.2841C3.51022 40.2752 3.91682 39.2669 4.32568 38.2596C7.12869 31.3578 9.94086 24.4601 12.75 17.5604L12.8174 17.4053L12.8863 17.2547H23.1524ZM59.8331 17.2434L60.7188 17.2688C62.0468 17.3142 63.3714 17.4028 64.6804 17.683C66.0981 17.9876 67.3939 18.5417 68.4903 19.5027L68.6001 19.5998C69.8755 20.7653 70.3464 22.1925 69.967 23.8906C69.7626 24.8086 69.3405 25.6275 68.8422 26.4137C67.4874 28.5473 65.6527 30.1503 63.4721 31.3822C62.3066 32.0409 61.1004 32.6144 59.8875 33.1731L58.6736 33.7295C58.336 33.8849 57.9942 34.0331 57.6647 34.2028C57.4613 34.3092 57.267 34.437 57.084 34.575C56.8053 34.7886 56.6731 35.0841 56.7819 35.4266C56.9019 35.8048 57.0341 36.1851 57.2152 36.5348C58.0644 38.1797 58.9269 39.8154 59.7934 41.4512C60.84 43.4284 61.8936 45.3994 62.9453 47.3746L62.9962 47.4785L63.1294 47.7702H62.6279C58.7102 47.7702 54.7915 47.7712 50.8728 47.7682C50.7538 47.7682 50.6368 47.7641 50.5188 47.7579C50.2534 47.7457 49.9879 47.7273 49.7235 47.7283C49.5191 47.7283 49.4255 47.6077 49.335 47.4655C48.7797 46.5853 48.1867 45.7286 47.6802 44.8208C46.2879 42.3263 45.3318 39.658 44.6626 36.8834L44.6045 36.6334L44.3879 35.6473L44.0768 34.1722L44.0087 33.8849C43.9031 33.9418 43.8604 34.0278 43.831 34.1157L43.799 34.2205C43.7937 34.2375 43.7881 34.2542 43.7818 34.2703L42.1692 38.4435C41.9 39.1388 41.6294 39.8335 41.3562 40.527L40.4646 42.7735L38.6671 47.2601L38.604 47.4015L38.5786 47.4737C38.5163 47.689 38.3799 47.7768 38.182 47.7751L38.0115 47.7664L37.8066 47.7702C35.2833 47.7702 32.761 47.7743 30.2377 47.7682C29.7556 47.7671 29.2715 47.759 28.7894 47.7487L27.514 47.7222L27.4352 47.7162L27.2719 47.6956L27.3602 47.37C27.3751 47.3188 27.3913 47.2689 27.4103 47.2202C27.752 46.3512 28.0924 45.4822 28.4368 44.6148L28.9572 43.3149L32.8813 33.6223L34.8317 28.7712C35.0966 28.1106 35.3398 27.4415 35.576 26.7694L36.0431 25.4231C36.1427 25.1368 36.2424 24.8505 36.3441 24.5643L36.3604 24.5072L36.398 24.2964H33.9876L34.0627 24.0785C34.0772 24.0389 34.0921 24.0043 34.1117 23.9724C34.252 23.7434 34.3883 23.5072 34.5551 23.2976C36.0736 21.3879 37.6032 19.4864 39.1186 17.5756C39.3282 17.3108 39.5539 17.2117 39.8967 17.2127L45.0186 17.2158L55.2624 17.2092C56.786 17.2092 58.3105 17.2045 59.8331 17.2434ZM53.3941 24.2555C52.0373 24.2474 50.6806 24.2821 49.3238 24.2954C48.8885 24.3005 48.4542 24.2872 48.0189 24.2872L47.8791 24.2918L47.5806 24.3118C46.6245 27.3726 45.4081 30.3149 44.1805 33.2531L44.2497 33.3155L44.7346 33.0462C44.8963 32.9566 45.0593 32.8697 45.2271 32.793L46.1282 32.3882L47.6394 31.7117L49.1529 31.0397C51.1952 30.138 53.1754 29.1218 54.9766 27.7857C55.3967 27.4728 55.8014 27.1334 56.1717 26.7623C56.3822 26.5517 56.5449 26.2685 56.6588 25.9894C56.7198 25.8391 56.7494 25.6909 56.7494 25.5488C56.7514 25.1491 56.5215 24.7994 56.1127 24.6031C55.9072 24.504 55.6814 24.415 55.4577 24.3925C54.7722 24.3261 54.0826 24.2596 53.3941 24.2555ZM44.8733 2.44676C47.4718 2.43347 50.0714 2.4672 52.667 2.55921C54.9686 2.64202 57.2692 2.80764 59.5647 2.98552C61.4645 3.13479 63.3634 3.33107 65.2571 3.55087C68.1568 3.88824 71.035 4.36056 73.9082 4.87786C77.2574 5.48001 80.4998 6.46452 83.7168 7.55024C87.309 8.76477 90.8636 10.0795 94.3165 11.6549C95.3539 12.1282 96.3618 12.6701 97.3667 13.2119C97.924 13.5626 98.4763 13.9224 99.0235 14.2905L99.1136 14.3748L99.2411 14.5011L99.1984 14.588L91.7504 14.5881L84.7216 14.5921C84.4439 14.5921 84.2039 14.5328 83.9588 14.3978C82.7333 13.721 81.4243 13.2344 80.1123 12.7611C75.3108 11.0262 70.4482 9.4804 65.5012 8.21782C63.0481 7.59113 60.5624 7.10041 58.0635 6.69352C55.9297 6.34695 53.7939 6.01163 51.653 5.71924C50.3145 5.53686 48.9715 5.39308 47.6281 5.25335L46.6206 5.14878C45.0807 4.98725 43.5389 4.83083 41.996 4.71531C40.1846 4.57832 38.3702 4.44541 36.5547 4.38714C34.4698 4.31916 32.384 4.26293 30.2982 4.21002L24.0408 4.05284C23.8639 4.04773 23.6859 4.03648 23.5038 3.9639C23.929 3.90562 24.3541 3.84224 24.7802 3.79112C25.9987 3.64084 27.2171 3.48851 28.4376 3.3505C29.3011 3.25338 30.1676 3.17466 31.0341 3.09594C32.2444 2.98655 33.4547 2.87818 34.6661 2.78515C35.0912 2.75243 35.5153 2.72176 35.9404 2.69416C36.2361 2.67576 36.5321 2.65917 36.8284 2.64653L37.2728 2.63078L40.313 2.53759C41.8331 2.49252 43.3532 2.45473 44.8733 2.44676Z" fill="#153683"></path></g><defs><clipPath id="clip0_1953_3158"><rect width="100" height="66" fill="white"></rect></clipPath></defs></svg>